<svg xmlns="http://www.w3.org/2000/svg" width="48" height="48"><path d="M24 48a24 24 0 1 0 0-48 24 24 0 0 0 0 48z" fill="#f7931a"/><path d="M34.8 21c.5-3.1-2-4.8-5.2-6l1-4.2-2.5-.6-1 4.1-2.2-.5 1-4.2-2.5-.6-1 4.3-1.7-.4-3.6-1-.7 2.8 1.9.5c1 .3 1.2 1 1.2 1.5l-1.2 4.9a2.3 2.3 0 0 1 .3 0h-.3l-1.7 6.8c-.1.3-.5.8-1.2.6l-1.9-.5-1.3 3 3.4.8 1.9.5-1.1 4.3 2.6.7 1-4.3 2.1.5-1 4.3 2.5.6 1.1-4.3c4.4.9 7.8.5 9.2-3.5 1-3.2 0-5-2.4-6.3 1.7-.4 3-1.5 3.3-3.8zm-6 8.3c-.7 3.3-6.2 1.5-8 1l1.5-5.6c1.8.4 7.4 1.3 6.6 4.6zm.9-8.3c-.8 3-5.3 1.4-6.7 1l1.3-5.1c1.4.3 6.1 1 5.4 4z" fill="#fff"/></svg>